inDegrees=no
num_controls=7
num_derivatives=13
num_iterations=110
num_multipliers=7
num_parameters=0
num_slacks=7
num_states=26
objective=0.431097
objective_accelerations=0.050914
objective_balance=0.006872
objective_effort=0.031400
objective_height=0.340759
objective_ligament=0.001153
solver_duration=1731.698549
status=Solve_Succeeded
success=true
DataType=double
version=3
OpenSimVersion=4.5
endheader
time	/jointset/ground_pelvis/pelvis_tilt/value	/jointset/ground_pelvis/pelvis_tx/value	/jointset/ground_pelvis/pelvis_ty/value	/jointset/hip_l/hip_flexion_l/value	/jointset/hip_l/hip_adduction_l/value	/jointset/hip_l/hip_rotation_l/value	/jointset/back/lumbar_extension/value	/jointset/patellofemoral_l/patellar_flexion_l/value	/jointset/knee_l/knee_flexion_l/value	/jointset/knee_l/knee_adduction_l/value	/jointset/knee_l/knee_rotation_l/value	/jointset/ankle_l/ankle_angle_l/value	/jointset/subtalar_l/subtalar_angle_l/value	/jointset/ground_pelvis/pelvis_tilt/speed	/jointset/ground_pelvis/pelvis_tx/speed	/jointset/ground_pelvis/pelvis_ty/speed	/jointset/hip_l/hip_flexion_l/speed	/jointset/hip_l/hip_adduction_l/speed	/jointset/hip_l/hip_rotation_l/speed	/jointset/back/lumbar_extension/speed	/jointset/patellofemoral_l/patellar_flexion_l/speed	/jointset/knee_l/knee_flexion_l/speed	/jointset/knee_l/knee_adduction_l/speed	/jointset/knee_l/knee_rotation_l/speed	/jointset/ankle_l/ankle_angle_l/speed	/jointset/subtalar_l/subtalar_angle_l/speed	/forceset/tau_hip_flexion_l	/forceset/tau_hip_adduction_l	/forceset/tau_hip_rotation_l	/forceset/tau_knee_flexion_l	/forceset/tau_ankle_angle_l	/forceset/tau_subtalar_angle_l	/forceset/tau_lumbar_extension	lambda_cid13_p0	lambda_cid13_p1	lambda_cid13_p2	lambda_cid13_p3	lambda_cid13_p4	lambda_cid13_p5	lambda_cid14_p0	/jointset/ground_pelvis/pelvis_tilt/accel	/jointset/ground_pelvis/pelvis_tx/accel	/jointset/ground_pelvis/pelvis_ty/accel	/jointset/hip_l/hip_flexion_l/accel	/jointset/hip_l/hip_adduction_l/accel	/jointset/hip_l/hip_rotation_l/accel	/jointset/back/lumbar_extension/accel	/jointset/patellofemoral_l/patellar_flexion_l/accel	/jointset/knee_l/knee_flexion_l/accel	/jointset/knee_l/knee_adduction_l/accel	/jointset/knee_l/knee_rotation_l/accel	/jointset/ankle_l/ankle_angle_l/accel	/jointset/subtalar_l/subtalar_angle_l/accel	gamma_cid13_p0	gamma_cid13_p1	gamma_cid13_p2	gamma_cid13_p3	gamma_cid13_p4	gamma_cid13_p5	gamma_cid14_p0
0.5	-0.3305719284029214	-0.0298126080236006	0.7659424820669682	1.165184548136853	-0.3044584287561226	0.01249682437506285	-0.3222679158156701	0.8189824060360006	0.8189824060358959	-0.173118119661629	0.165889216451217	0.166476703915221	-0.01828230529404735	-0.4281255591746467	-0.1642302417558598	-0.513487999513163	2.130057848609192	0.01231235466983847	0.7045706316003782	-0.6324705323711181	2.127755888858788	2.127755888858844	-0.007943012667910827	0.0468361305613578	0.5492772514076191	0.1044767207415779	-0.1846895683498099	0.01878219629531839	-0.02624364767708035	-0.2593503430482927	0.1007201404122393	0.03811963265640033	0.1844212379300375	-5.667968825665954	-18.21142348039729	5.526189503803491	-1.72739893313961	-603.2667737729678	-59.49254612382661	-20.33832170245883	0.4919454946964125	0.5466084658120753	-0.4507721137414487	-1.269604975701492	0.6722892561892172	-0.3413607107219468	1.598696707903584	-1.343644660661928	-1.343644660661926	0.0151806574004978	-0.07786581261862763	-0.5927636212849288	0.6871734303955084	-4.361855524923576e-07	-5.186894983736609e-07	2.725289251576046e-06	2.974547259915061e-07	-5.431505647049826e-07	-3.083168221764143e-07	-4.281864159545593e-07
0.51	-0.3348275974194082	-0.03142733180398163	0.7607862397931865	1.186417780005081	-0.3043031004116841	0.0195264310487729	-0.3285120956150783	0.8401890728454415	0.8401890728452978	-0.1732001287552495	0.1663533684894236	0.1719384940183252	-0.01720482993477165	-0.4229508267805694	-0.1586961068344479	-0.5176432858706354	2.116282056433805	0.01874041525261625	0.7012355308462949	-0.6162654945768882	2.113271966496968	2.113271966496935	-0.008411222454972717	0.04599283836067325	0.5429969560833764	0.1110106540811534	-0.1912671189074473	0.01924586958844234	-0.02630429906382814	-0.2621787664214931	0.09899428260108133	0.03820550435806761	0.1899690592370484	-6.474904887207634	-18.00777619672801	5.379894165599713	-1.449015518919627	-607.9884313288527	-59.17075283748044	-19.03679545384205	0.5388158088767795	0.5596355653937672	-0.3804359624132064	-1.477583627422945	0.6257782071903429	-0.3472355914762353	1.646397255209375	-1.546508914587373	-1.546508914600604	-0.07066815578122448	-0.08830326127951482	-0.6582174192634285	0.6351125181827622	-4.044781822766027e-07	-4.225792444990781e-07	2.606226501105491e-06	2.91630380860238e-07	-5.069831222650918e-07	-2.14276732071504e-07	-4.033514783239593e-07
0.52	-0.3390298033725325	-0.03298615032313083	0.7555919388426974	1.207504050493761	-0.3040839487118432	0.02651915654819552	-0.3345912270485393	0.861241751853135	0.8612417518529516	-0.1732853892185461	0.1668089391381261	0.177334970181933	-0.01606229339561137	-0.4174329465019561	-0.1530491895094974	-0.5210997348546365	2.100665572699792	0.0250770257501263	0.6971943967432223	-0.5994608591815924	2.096958328509334	2.096958328509213	-0.008593286602902138	0.04511985266054257	0.5362144635083533	0.1174889567184964	-0.197844669465086	0.01970954288156328	-0.02636495045056222	-0.2650071897946971	0.09726842478992134	0.03829137605973095	0.1955168805440585	-7.286589173180555	-17.80495652808543	5.2356278102971	-1.185436612615294	-612.8056891556862	-58.93406692740719	-17.73480587624415	0.5605750716035987	0.569164946519812	-0.3110046390472181	-1.637743287426958	0.6539992391356698	-0.4825673805198017	1.718616228116729	-1.709587785824592	-1.709587785824673	0.07240978522699011	-0.08380451250785155	-0.6932030714409904	0.6760472899490088	-3.758063861354442e-07	-3.101342683015435e-07	2.499154344552638e-06	2.905082351216169e-07	-4.759200399705247e-07	-1.184149547526042e-07	-3.789152921388772e-07
0.53	-0.3431752564002858	-0.03448799991164563	0.7503665967609271	1.228425214627214	-0.3038019337434758	0.03346825778524876	-0.3404993846690344	0.8821223188978073	0.8821223188978888	-0.1733712120687133	0.1672554959151599	0.1826612146242593	-0.01485531119314317	-0.4116073801679353	-0.147307579681446	-0.5238479299807312	2.083270599518273	0.03129087457258667	0.6925388938958792	-0.5820837942759352	2.078857334919682	2.078857334919651	-0.008570108478181487	0.04418791309295698	0.5289543141586173	0.1238729985823453	-0.2042529607537327	0.01993250241104762	-0.02636560060289554	-0.2679912789418042	0.0957281541724765	0.03824783804217487	0.2009091282632611	-8.043984382436733	-17.54926608455688	5.075878500761704	-0.9152262351903804	-617.6290182198014	-58.65098649158062	-16.4359660865403	0.6010620870013211	0.5786892615659006	-0.2387061423900163	-1.834911495560779	0.5994735544634886	-0.4704075097549248	1.760282217990788	-1.90494375534065	-1.904943755326959	-0.03252141024832181	-0.09891282384217384	-0.7544144706702223	0.6141626407064721	-3.45284887311351e-07	-2.0054916928191e-07	2.380650260664959e-06	2.870631369915338e-07	-4.426148726522045e-07	-2.784447419700697e-08	-3.529156073648262e-07
0.54	-0.3472609508301601	-0.0359320273497562	0.7451173768892958	1.249163521596442	-0.3034589011167504	0.040368130839244	-0.3462311655212332	0.9028129582846219	0.9028129582849697	-0.1734567617849031	0.1676925284675259	0.1879124588523021	-0.01358557257081577	-0.4054812269259133	-0.1414847594286539	-0.5258752928268062	2.064094139854902	0.03728055742153854	0.6873487601320007	-0.564185505522257	2.058972796937824	2.058972796937885	-0.00853865980717761	0.04321500772704065	0.5212144206516682	0.1300402406903395	-0.2106612520423801	0.02015546194052902	-0.02636625075521569	-0.2709753680889144	0.09418788355502974	0.03820430002461491	0.2063013759824633	-8.806038355717245	-17.29386500079193	4.917439498608748	-0.659973281237461	-622.5443681097488	-58.44483594208808	-15.14554816029497	0.6206924532038344	0.5854070314679651	-0.166838183043297	-1.994040583797194	0.6091660444339695	-0.5894935638268706	1.82286099772088	-2.066296664265627	-2.066296664265626	0.07406389448363501	-0.09199767217399507	-0.7891519028835687	0.632687338778062	-3.127169089231597e-07	-9.412818969314602e-08	2.249498086960027e-06	2.810479638751523e-07	-4.068291006267534e-07	5.687180568429817e-08	-3.25186094364682e-07
0.55	-0.3512840025744723	-0.03731750947156961	0.7398514962720674	1.26970149136745	-0.3030569363539558	0.04721359024370396	-0.3517815296657519	0.9232961010128754	0.923296101013184	-0.1735416914206596	0.1681194377194662	0.1930840600541323	-0.01225506994136104	-0.3990845633077411	-0.1356062565821792	-0.5271786002698046	2.043220496046392	0.04307288607509821	0.681673631498052	-0.5458230755304153	2.037373752167058	2.03737375216709	-0.008455873915035488	0.04215417418162509	0.513033222865188	0.1360194550362303	-0.2168378855563619	0.02024189126584961	-0.02629958210159896	-0.2740306300373372	0.09271235074063283	0.03801647141756653	0.2114608224602225	-9.547002353590111	-16.97112980374314	4.738713031417103	-0.3504669297712998	-627.3493293217883	-58.15847581975673	-13.86714037777233	0.6558171838433479	0.5899387174617979	-0.093819934472644	-2.175954228536808	0.5580208767645564	-0.5672103705843867	1.852571177549151	-2.248945853190101	-2.248945853194328	-0.02586070373874062	-0.115461800405968	-0.8434647639174494	0.5741633498946288	-2.789482780115727e-07	3.045832980517153e-09	2.108604510239245e-06	2.718950142343223e-07	-3.696109014970273e-07	1.337923923577118e-07	-2.967315243150236e-07
0.5600000000000001	-0.3552417549090601	-0.03864403320367326	0.7345762339985	1.290022339110541	-0.3025982973844349	0.05400016079034071	-0.3571463420748259	0.9435548057994798	0.9435548057997489	-0.1736260425255607	0.1685352715150149	0.1981716770686201	-0.0108660501949674	-0.3924213449807907	-0.1296930814867052	-0.5277516240945872	2.020669734271527	0.04861539876656253	0.6755709885678814	-0.5270751584332413	2.014085208607974	2.014085208607978	-0.008422953635622931	0.04099991644898408	0.5044175831832186	0.1417436640781228	-0.2230145190703444	0.0203283205911657	-0.02623291344797026	-0.2770858919857631	0.09123681792623348	0.03782864281051222	0.2166202689379815	-10.29266489130046	-16.64778026290463	4.560128321997929	-0.05552203595834884	-632.2440748610294	-57.93927143478692	-12.60364727598783	0.6740033949594454	0.5923414812678625	-0.02078145940020304	-2.329464177068113	0.5592028520148965	-0.6749964230712933	1.899958418787351	-2.404196421929018	-2.404196421929011	0.06409077193772214	-0.1106825096190786	-0.8760402819814177	0.5816862779784435	-2.43738864071911e-07	8.91235073560596e-08	1.956021249899445e-06	2.589767327641543e-07	-3.306737898421715e-07	2.01358147181656e-07	-2.674068858059483e-07
0.5700000000000001	-0.3591316906361325	-0.03991133214142986	0.7292988812544596	1.310109666261207	-0.3020852630042445	0.06072334682378097	-0.3623219155039565	0.9635725101318903	0.9635725101320795	-0.1737096964972625	0.1689391004825891	0.2031711536115373	-0.009420805542264503	-0.3855288944359623	-0.1237681629452556	-0.5275970079817962	1.996536788683459	0.05395257617801574	0.6689835292744896	-0.5079986623620872	1.989194817256693	1.989194817256676	-0.008296586605081018	0.03975983500922206	0.4954156023672041	0.1472643173567899	-0.2288605645039638	0.02027555303724786	-0.02610900682530794	-0.2802458015432224	0.08993008418550616	0.03750936771216801	0.2214675047187745	-10.97816885729438	-16.2699628862647	4.363818654852524	0.2552763629433193	-636.9457064744128	-57.66374746139561	-11.35752332813328	0.7023890321791454	0.5923988424310634	0.05180892663560765	-2.494067038329676	0.5148537303801267	-0.6632304229234954	1.917624955867461	-2.570536420520549	-2.570536420523765	-0.01134876583133333	-0.1319537992027537	-0.9215627865251738	0.5308700637290513	-2.122745642591756e-07	1.443905422775643e-07	1.806581696955845e-06	2.438746670781596e-07	-2.961068477161679e-07	2.503533303179801e-07	-2.413403115703218e-07
0.58	-0.3629515972281707	-0.04111941553340239	0.7240267198275506	1.329947892498262	-0.3015200811410047	0.06737813631619513	-0.3673054980214582	0.9833334953650296	0.9833334953651386	-0.1737917384855495	0.1693302720681551	0.2080787531852717	-0.007921631314591285	-0.3784155179737496	-0.1178499723298893	-0.526713360668332	1.970849551549255	0.05904489537625288	0.6618916803630828	-0.4886769761074135	1.962741388753694	1.962741388753655	-0.008100556952289128	0.03846844004754025	0.4860421893466411	0.1525295790721853	-0.2347066099375829	0.02022278548332787	-0.02598510020263981	-0.2834057111006834	0.08862335044477737	0.03719009261382084	0.2263147404995678	-11.66886198611314	-15.89057317241891	4.166501728608571	0.5538898392634962	-641.740409619021	-57.44554334570619	-10.13086547777645	0.7181885784362497	0.590995896051251	0.1250247807344604	-2.640322486295285	0.5102312093716775	-0.7758743466742756	1.948996455491293	-2.716803852272733	-2.716803852272689	0.0780232963877184	-0.1209452140030316	-0.9503267228910934	0.5306079653241123	-1.856876223791814e-07	1.59532093258928e-07	1.661236274574741e-06	2.259286033436466e-07	-2.672312891626232e-07	2.751635828843809e-07	-2.195167977838381e-07
